first trial
nRows=32
nColumns=38

# SIMM Motion File Header:
name Sujet_08_velo_100.mvnx
datacolumns 38
datarows 32
otherdata 1
range 0.0000 0.5170
endheader
time pelvis_tilt  pelvis_list  pelvis_rotation  pelvis_tx  pelvis_ty  pelvis_tz  hip_flexion_r  hip_adduction_r  hip_rotation_r  knee_angle_r  ankle_angle_r  subtalar_angle_r  mtp_angle_r  hip_flexion_l  hip_adduction_l  hip_rotation_l  knee_angle_l  ankle_angle_l  subtalar_angle_l  mtp_angle_l  lumbar_extension  lumbar_bending  lumbar_rotation  arm_flex_r  arm_add_r  arm_rot_r  elbow_flex_r  pro_sup_r  wrist_flex_r  wrist_dev_r  arm_flex_l  arm_add_l  arm_rot_l  elbow_flex_l  pro_sup_l  wrist_flex_l  wrist_dev_l
0.0000	-28.2300	0.0897	38.2636	0.0000	1.2500	-0.0000	96.3914	-0.7772	-1.6049	84.9229	-1.0523	8.0202	-0.0000	66.2343	-0.9035	-6.0287	64.0143	-20.1120	3.6462	0.0000	-11.1884	-1.0977	2.2415	88.1118	-6.7864	21.1645	0.5200	90.4926	-37.0657	-20.4108	89.3214	-11.0568	13.9392	8.6364	84.5830	-33.4515	-25.8756	
0.0170	-27.5640	0.6513	38.5869	0.0000	1.2500	-0.0000	92.2266	-1.0061	-3.3028	78.5172	-3.1258	7.8819	0.0000	68.1686	0.2647	-5.1642	70.0293	-19.1730	5.2876	0.0000	-11.4246	-1.3045	2.1348	87.8593	-6.8945	21.5286	0.4829	90.1413	-37.1402	-20.4264	89.2129	-10.9924	14.0250	8.5758	84.6530	-33.3834	-25.8645	
0.0330	-26.8952	1.2052	38.9009	0.0000	1.2500	-0.0000	88.0650	-1.1606	-5.0324	72.0518	-5.1921	7.7436	0.0000	70.0979	1.4613	-4.3675	76.1210	-18.2289	6.9342	-0.0000	-11.6619	-1.5105	2.0283	87.6067	-7.0016	21.8924	0.4452	89.7899	-37.2146	-20.4419	89.1042	-10.9282	14.1107	8.5150	84.7229	-33.3153	-25.8534	
0.0500	-26.3368	1.6773	39.4003	0.0000	1.2500	-0.0000	83.6981	-1.5144	-6.6408	65.6407	-7.4605	7.9020	0.0000	72.5452	2.5280	-3.4761	81.9953	-17.3002	8.1015	-0.0000	-11.8630	-1.6382	1.8752	87.4360	-7.1768	22.1085	0.4209	89.4995	-37.2650	-20.4532	89.0583	-10.7990	14.1278	8.4370	84.9211	-33.2735	-25.8125	
0.0670	-25.9260	2.0262	40.2126	0.0000	1.2500	-0.0000	78.8755	-2.2106	-8.1773	59.1479	-10.1713	8.6492	0.0000	75.8630	3.4037	-2.3346	87.7050	-16.5416	8.4978	-0.0000	-12.0170	-1.6438	1.6470	87.4193	-7.4565	22.0215	0.4319	89.3630	-37.2867	-20.4270	89.1274	-10.5524	14.0339	8.3205	85.3345	-33.2576	-25.7171	
0.0830	-25.6239	2.2942	41.2152	0.0000	1.2500	-0.0000	73.8298	-3.0322	-9.7147	52.7836	-13.0698	9.6206	-0.0000	79.7045	4.2405	-1.1430	93.1226	-15.8083	8.4132	-0.0000	-12.1340	-1.5709	1.3728	87.4831	-7.8054	21.7869	0.4567	89.2873	-37.2842	-20.3971	89.2579	-10.2406	13.8700	8.1848	85.8760	-33.2680	-25.5919	
0.1000	-25.4288	2.5334	42.2292	0.0000	1.2500	-0.0000	69.0811	-3.7509	-11.1202	47.2175	-15.6706	10.2014	-0.0000	83.5368	5.1620	-0.2666	97.6692	-14.6805	8.2245	-0.0000	-12.2073	-1.4739	1.0920	87.4920	-8.1854	21.7228	0.4422	89.0541	-37.2468	-20.4594	89.3534	-9.9562	13.6931	8.0722	86.4130	-33.3327	-25.4810	
0.1170	-25.3695	2.7362	43.2453	0.0000	1.2500	-0.0000	64.6188	-4.3940	-12.3377	42.3957	-17.9908	10.2372	0.0000	87.3463	6.1764	0.0477	101.2675	-12.8211	8.1405	0.0000	-12.2169	-1.3465	0.8068	87.3392	-8.5985	21.9796	0.3295	88.5405	-37.1623	-20.6881	89.3834	-9.7140	13.5191	7.9799	86.9202	-33.4829	-25.4051	
0.1330	-25.4185	2.9179	44.2776	0.0000	1.2500	-0.0000	60.4499	-4.9846	-13.3899	38.3690	-20.0263	10.0201	0.0000	91.1510	7.1961	0.0425	104.0071	-10.5630	7.9279	0.0000	-12.1819	-1.1963	0.5146	87.1318	-9.0426	22.4047	0.1778	87.8704	-37.0421	-21.0084	89.3793	-9.4994	13.3336	7.9081	87.4237	-33.6875	-25.3436	
0.1500	-25.4874	3.1636	45.1812	0.0000	1.2500	-0.0000	57.1440	-5.4098	-14.1612	35.9526	-21.3187	9.6238	0.0000	94.4578	8.1529	0.1548	105.5598	-8.4872	7.2915	0.0000	-12.1555	-1.0978	0.2484	87.0565	-9.4754	22.8627	0.1116	87.1955	-36.9112	-21.2939	89.3388	-9.3619	13.1498	7.9051	87.8678	-33.8808	-25.2787	
0.1670	-25.5650	3.5461	45.9329	0.0000	1.2500	-0.0000	54.8941	-5.7143	-14.5376	35.4882	-21.5807	8.8687	0.0000	97.2427	9.0701	0.7149	105.7699	-6.6834	5.8074	-0.0000	-12.1525	-1.0896	0.0090	87.2299	-9.9344	23.3738	0.2171	86.5085	-36.7667	-21.5153	89.2201	-9.3341	12.9995	8.0051	88.2014	-34.0418	-25.2033	
0.1830	-25.6613	3.9930	46.5568	0.0000	1.2500	-0.0000	53.5156	-5.9790	-14.5647	36.6385	-21.1214	7.8547	-0.0000	99.5252	9.9314	1.4694	104.7994	-5.0526	3.9096	-0.0000	-12.1591	-1.1321	-0.2042	87.5366	-10.3861	23.9190	0.4121	85.8159	-36.6126	-21.7022	89.0653	-9.3834	12.8515	8.1759	88.4741	-34.1915	-25.1245	
0.2000	-25.7221	4.3669	46.9752	0.0000	1.2500	-0.0000	53.0219	-6.1688	-14.3338	39.2125	-20.3920	6.9983	-0.0000	100.8712	10.6139	2.0354	102.7854	-3.8937	2.5899	-0.0000	-12.1855	-1.1829	-0.3602	87.8152	-10.6787	24.3063	0.5640	85.2892	-36.4837	-21.8169	88.9982	-9.4611	12.6233	8.3669	88.7816	-34.3282	-25.0457	
0.2170	-25.7272	4.6555	47.1271	0.0000	1.2500	-0.0000	53.5460	-6.2516	-13.9240	43.4596	-19.3846	6.3464	-0.0000	101.1116	11.0902	2.4322	99.6436	-3.2984	2.2600	-0.0000	-12.2470	-1.2497	-0.4489	87.9942	-10.7043	24.3826	0.6154	85.0528	-36.3975	-21.8224	89.1255	-9.5792	12.2191	8.5907	89.2163	-34.4565	-24.9636	
0.2330	-25.7012	4.8696	47.0719	0.0000	1.2500	-0.0000	54.9567	-6.2426	-13.2334	49.1503	-18.1009	5.8004	-0.0000	100.4055	11.3714	2.6964	95.4522	-3.1755	2.4879	0.0000	-12.3277	-1.3252	-0.4805	88.1456	-10.5668	24.3020	0.6198	84.9820	-36.3359	-21.7557	89.3394	-9.7253	11.7338	8.8355	89.6850	-34.5718	-24.8809	
0.2500	-25.6580	4.9044	46.9120	0.0000	1.2500	-0.0000	56.8719	-6.1539	-12.0921	55.3615	-16.9845	5.6145	0.0000	98.8170	11.3901	2.4653	90.5874	-3.5408	3.0001	-0.0000	-12.3913	-1.3437	-0.4536	88.3226	-10.4292	24.3327	0.6076	84.8743	-36.2800	-21.6905	89.4431	-9.8147	11.3697	9.0149	90.0082	-34.6576	-24.8095	
0.2670	-25.5936	4.6541	46.7194	0.0000	1.2500	-0.0000	59.2215	-5.9141	-10.2731	62.0313	-16.1598	6.1054	-0.0000	96.2351	11.1800	1.4050	84.9789	-4.5268	3.9542	-0.0000	-12.4225	-1.2436	-0.3643	88.5794	-10.3793	24.6900	0.5796	84.5514	-36.2206	-21.6645	89.3399	-9.7820	11.2299	9.0850	90.1012	-34.7066	-24.7434	
0.2830	-25.5095	4.2254	46.4228	0.0000	1.2500	-0.0000	62.0748	-5.5071	-8.0422	69.1725	-15.4833	7.0338	0.0000	92.7761	10.7769	-0.1921	78.6658	-6.0037	5.2063	0.0000	-12.4372	-1.0865	-0.2163	88.8609	-10.3278	25.1585	0.5353	84.1915	-36.1671	-21.6401	89.1284	-9.6929	11.2123	9.0919	90.0506	-34.7261	-24.6893	
0.3000	-25.4254	3.8333	45.9091	0.0000	1.2500	-0.0000	65.2632	-5.0547	-5.9620	75.9864	-15.0015	7.8501	-0.0000	88.8523	10.1101	-1.7823	72.1948	-7.5894	6.0457	0.0000	-12.4467	-0.9914	-0.0185	89.0547	-10.1737	25.3595	0.5024	84.1261	-36.1281	-21.5780	88.9057	-9.6595	11.2123	9.0835	89.9346	-34.7217	-24.6789	
0.3170	-25.3298	3.5346	45.0860	0.0000	1.2500	-0.0000	68.8440	-4.6065	-4.1169	82.3670	-15.0808	8.3262	0.0000	84.3976	9.1018	-3.3065	65.5382	-9.1287	6.0589	0.0000	-12.4531	-0.9974	0.2367	89.0917	-9.8636	25.0246	0.5143	84.5983	-36.0972	-21.4358	88.6806	-9.7376	11.1973	9.0949	89.7670	-34.6905	-24.7166	
0.3330	-25.2320	3.2739	44.0460	0.0000	1.2500	-0.0000	72.7653	-4.0660	-2.4673	88.4512	-15.3680	8.7079	0.0000	79.4863	7.9113	-4.9719	58.7509	-10.7725	5.6453	-0.0000	-12.4543	-1.0648	0.5420	89.0420	-9.4546	24.4214	0.5334	85.3645	-36.0798	-21.2552	88.4437	-9.8707	11.1993	9.0892	89.5340	-34.6355	-24.7982	
0.3500	-25.1839	3.0956	42.9503	0.0000	1.2500	-0.0000	76.6913	-3.4301	-1.3545	93.8486	-14.8365	9.0883	0.0000	74.7368	6.7466	-6.5881	52.5600	-12.5956	5.3147	-0.0000	-12.4537	-1.1953	0.8655	89.0006	-9.0104	23.9747	0.4847	86.0263	-36.1036	-21.1225	88.2644	-10.0030	11.2091	9.0061	89.2711	-34.5705	-24.9438	
0.3670	-25.2171	3.0717	41.7849	0.0000	1.2500	-0.0000	80.6204	-2.7595	-1.0837	98.5841	-12.8634	9.6500	-0.0000	70.1760	5.5896	-8.0991	46.9827	-14.8317	5.2536	0.0000	-12.4569	-1.4339	1.2190	89.0410	-8.5343	23.9516	0.3184	86.3610	-36.1942	-21.0857	88.2041	-10.0897	11.1745	8.7456	89.0342	-34.5038	-25.1924	
0.3830	-25.3054	3.1257	40.5616	0.0000	1.2500	-0.0000	84.5448	-2.1005	-1.3617	102.6523	-10.0772	10.1796	-0.0000	65.7546	4.4620	-9.5528	42.0384	-17.2479	5.2784	-0.0000	-12.4558	-1.7367	1.5903	89.0856	-8.0205	24.0855	0.0880	86.5901	-36.3269	-21.0973	88.2012	-10.1765	11.1477	8.4047	88.7630	-34.4277	-25.5054	
0.4000	-25.4122	3.0792	39.4787	0.0000	1.2500	-0.0000	88.1262	-1.4603	-1.5746	105.6033	-7.3109	10.1612	0.0000	61.9841	3.4867	-10.7924	38.4269	-19.2196	5.3638	-0.0000	-12.4343	-1.9719	1.9123	89.0059	-7.5177	24.0010	-0.1208	86.9838	-36.4553	-21.1019	88.1400	-10.3444	11.2765	8.2194	88.3224	-34.3315	-25.7844	
0.4170	-25.5293	2.8472	38.5658	0.0000	1.2500	-0.0000	91.3998	-0.8045	-1.4845	107.3410	-4.6215	9.1622	-0.0000	58.9559	2.5510	-11.6831	36.3035	-20.5370	5.5618	-0.0000	-12.3714	-2.0914	2.1678	88.6672	-6.9991	23.4714	-0.3052	87.7418	-36.5622	-21.0913	87.9212	-10.6687	11.6719	8.3172	87.5781	-34.2071	-26.0103	
0.4330	-25.6599	2.5143	37.7927	0.0000	1.2500	-0.0000	94.3445	-0.1800	-1.2787	107.9632	-1.9536	7.7122	0.0000	56.5853	1.6111	-12.2857	35.4935	-21.4159	5.8567	0.0000	-12.2897	-2.1423	2.3743	88.2090	-6.4936	22.7265	-0.4665	88.6654	-36.6649	-21.0738	87.6425	-11.0757	12.2189	8.5753	86.6693	-34.0626	-26.2013	
0.4500	-25.7827	2.1581	37.2693	0.0000	1.2500	-0.0000	96.5478	0.3177	-0.9264	107.2894	0.0620	6.6545	-0.0000	55.1366	0.8259	-12.6715	36.1866	-21.8598	6.0921	0.0000	-12.2395	-2.1361	2.5166	87.9165	-6.1315	22.0742	-0.5266	89.4292	-36.7690	-21.0173	87.4848	-11.4219	12.7299	8.8536	85.8757	-33.9113	-26.3148	
0.4670	-25.9090	1.7295	37.0642	0.0000	1.2500	-0.0000	97.9238	0.6559	-0.1101	105.0537	1.2089	6.1707	0.0000	54.8107	0.1836	-12.8822	38.6795	-21.7531	6.1061	0.0000	-12.2479	-2.0396	2.5875	87.9574	-5.9911	21.6106	-0.4195	89.9156	-36.8839	-20.8835	87.5509	-11.6744	13.1689	9.1504	85.2695	-33.7415	-26.3195	
0.4830	-26.0319	1.2797	37.1096	0.0000	1.2500	-0.0000	98.5539	0.8654	0.9191	101.5296	1.7227	5.9548	0.0000	55.4188	-0.3427	-12.8053	42.6836	-21.1919	5.9926	-0.0000	-12.2881	-1.8870	2.5948	88.1621	-5.9919	21.2368	-0.2119	90.2426	-37.0003	-20.7103	87.7404	-11.8652	13.5766	9.4687	84.7790	-33.5644	-26.2473	
0.5000	-26.1037	1.0380	37.3128	0.0000	1.2500	-0.0000	98.2806	0.9395	1.3429	97.3006	1.6735	6.0293	0.0000	56.6376	-0.5909	-12.2794	47.5193	-20.4992	5.9839	0.0000	-12.3294	-1.7917	2.5452	88.3088	-6.0254	20.9661	-0.0260	90.4387	-37.0959	-20.5803	87.9303	-11.9461	13.8836	9.6707	84.4681	-33.4272	-26.1511	
0.5170	-26.1050	1.1433	37.6612	0.0000	1.2500	-0.0000	96.9775	0.9420	0.6983	92.4193	1.0137	6.5968	0.0000	58.4397	-0.3830	-11.1852	53.2199	-19.7381	6.2112	0.0000	-12.3654	-1.8177	2.4269	88.3187	-6.0535	20.8014	0.1043	90.5138	-37.1561	-20.5286	88.0952	-11.8671	14.0298	9.6799	84.4048	-33.3614	-26.0330	
